<?xml version="1.0" standalone="no"?>
<!DOCTYPE svg PUBLIC "-//W3C//DTD SVG 20010904//EN"
 "http://www.w3.org/TR/2001/REC-SVG-20010904/DTD/svg10.dtd">
<svg version="1.0" xmlns="http://www.w3.org/2000/svg"
 width="1536.000000pt" height="1536.000000pt" viewBox="0 0 1536.000000 1536.000000"
 preserveAspectRatio="xMidYMid meet">
<metadata>
Created by potrace 1.11, written by Peter Selinger 2001-2013
</metadata>
<g transform="translate(0.000000,1536.000000) scale(0.100000,-0.100000)"
fill="#000000" stroke="none">
<path d="M0 7680 l0 -7680 7680 0 7680 0 0 7680 0 7680 -7680 0 -7680 0 0
-7680z m6680 2579 c867 -90 1645 -634 2035 -1424 98 -199 144 -318 190 -499
77 -303 101 -593 74 -886 -105 -1140 -930 -2069 -2050 -2309 -331 -71 -746
-69 -1083 4 -496 107 -924 342 -1286 704 -407 408 -646 884 -737 1471 -22 144
-25 545 -5 690 85 604 349 1126 778 1540 458 441 1036 688 1689 724 83 4 281
-3 395 -15z m4159 -863 c36 -19 94 -83 180 -199 263 -355 426 -773 481 -1237
16 -136 14 -454 -4 -602 -39 -309 -115 -568 -252 -845 -130 -266 -373 -587
-459 -609 -14 -3 -50 -4 -80 -2 -98 8 -159 77 -159 179 -1 63 8 79 119 214
223 270 376 608 446 985 27 145 37 486 19 641 -48 419 -213 819 -465 1128 -90
111 -106 155 -85 233 13 47 49 90 92 111 41 20 130 22 167 3z m-871 -672 c44
-18 84 -55 162 -149 439 -534 464 -1284 61 -1855 -63 -89 -199 -230 -238 -246
-120 -51 -254 36 -254 164 -1 67 11 91 91 179 331 362 410 853 205 1280 -53
112 -100 182 -194 291 -51 60 -72 92 -77 120 -3 20 -6 39 -7 42 -4 27 18 95
40 121 52 62 138 84 211 53z"/>
<path d="M6215 9804 c-592 -62 -1086 -321 -1460 -765 -247 -294 -412 -666
-470 -1064 -22 -147 -22 -442 0 -590 35 -241 101 -449 211 -666 450 -887 1451
-1345 2417 -1103 522 131 972 455 1277 919 160 244 281 588 320 905 15 124 12
382 -5 516 -122 928 -830 1663 -1755 1824 -121 21 -431 35 -535 24z"/>
</g>
</svg>
